<!DOCTYPE svg PUBLIC "-//W3C//DTD SVG 1.1//EN" "http://www.w3.org/Graphics/SVG/1.1/DTD/svg11.dtd">
<!-- Uploaded to: SVG Repo, www.svgrepo.com, Transformed by: SVG Repo Mixer Tools -->
<svg height="800px" width="800px" version="1.1" id="Layer_1" xmlns="http://www.w3.org/2000/svg" xmlns:xlink="http://www.w3.org/1999/xlink" viewBox="0 0 512 512" xml:space="preserve" fill="#000000">
<g id="SVGRepo_bgCarrier" stroke-width="0"/>
<g id="SVGRepo_tracerCarrier" stroke-linecap="round" stroke-linejoin="round"/>
<g id="SVGRepo_iconCarrier"> <path style="fill:#A9ACAE;" d="M490.079,225.752L411.857,91.919c-23.345-39.943-77.111-49.092-112.354-19.12l0,0 c-7.081,6.022-8.127,16.568-2.367,23.864l0,0c4.182,5.297,11.066,7.673,17.625,6.085l11.63-2.817 c14.287-3.46,28.955,4.064,34.478,17.687l43.97,108.457v51.073h84.901L490.079,225.752z"/> <path style="fill:#CACDCD;" d="M22.726,225.752l78.221-133.833c23.345-39.943,77.111-49.092,112.354-19.12l0,0 c7.081,6.022,8.127,16.568,2.367,23.864l0,0c-4.182,5.297-11.066,7.673-17.625,6.085l-11.63-2.817 c-14.287-3.46-28.955,4.064-34.478,17.687l-43.97,108.457v51.073H23.066L22.726,225.752z"/> <polygon style="fill:#EBECEC;" points="256,225.752 0,225.752 0,456.922 189.968,456.922 256.402,374.912 322.032,456.922 512,456.922 512,225.752 "/> <polygon style="fill:#CACDCD;" points="256,225.752 256,374.912 322.032,456.922 512,456.922 512,225.752 "/> <path style="fill:#C7EAF0;" d="M59.534,397.388V285.287h135.059c23.188,0,36.011,26.89,21.415,44.908l-54.432,67.193L59.534,397.388 L59.534,397.388z"/> <path style="fill:#FD387E;" d="M350.641,397.388l-53.875-67.321c-14.441-18.045-1.594-44.78,21.518-44.78h134.182v112.101H350.641z"/> </g>
</svg>