<!DOCTYPE svg PUBLIC "-//W3C//DTD SVG 1.1//EN" "http://www.w3.org/Graphics/SVG/1.1/DTD/svg11.dtd">
<!-- Uploaded to: SVG Repo, www.svgrepo.com, Transformed by: SVG Repo Mixer Tools -->
<svg height="800px" width="800px" version="1.1" id="Layer_1" xmlns="http://www.w3.org/2000/svg" xmlns:xlink="http://www.w3.org/1999/xlink" viewBox="0 0 512 512" xml:space="preserve" fill="#000000">
<g id="SVGRepo_bgCarrier" stroke-width="0"/>
<g id="SVGRepo_tracerCarrier" stroke-linecap="round" stroke-linejoin="round"/>
<g id="SVGRepo_iconCarrier"> <path style="fill:#D6E5F6;" d="M452.923,334.769H59.077c-10.875,0-19.692,8.816-19.692,19.692v78.769 c0,10.875,8.817,19.692,19.692,19.692h393.846c10.875,0,19.692-8.817,19.692-19.692v-78.769 C472.615,343.585,463.798,334.769,452.923,334.769z"/> <path style="fill:#BCD6F2;" d="M452.923,334.769H256v118.154h196.923c10.875,0,19.692-8.817,19.692-19.692v-78.769 C472.615,343.585,463.798,334.769,452.923,334.769z"/> <path style="fill:#D6E5F6;" d="M256,137.845c-119.442,0-216.615,97.174-216.615,216.617c0,10.874,8.817,19.692,19.692,19.692 h393.846c10.875,0,19.692-8.818,19.692-19.692C472.615,235.019,375.442,137.845,256,137.845z"/> <path style="fill:#BCD6F2;" d="M256,137.845v236.309h196.923c10.875,0,19.692-8.818,19.692-19.692 C472.615,235.019,375.442,137.845,256,137.845z"/> <g> <path style="fill:#8CB7E8;" d="M344.076,295.382c-5.406,0-10.79-2.213-14.68-6.558C310.725,267.964,283.972,256,256,256 c-10.875,0-19.692-8.818-19.692-19.692c0-10.877,8.817-19.692,19.692-19.692c39.16,0,76.608,16.744,102.743,45.941 c7.253,8.104,6.564,20.554-1.54,27.807C353.445,293.727,348.751,295.382,344.076,295.382z"/> <path style="fill:#8CB7E8;" d="M492.308,334.769H19.692C8.817,334.769,0,343.585,0,354.462c0,10.874,8.817,19.692,19.692,19.692 h472.615c10.875,0,19.692-8.818,19.692-19.692C512,343.585,503.183,334.769,492.308,334.769z"/> <path style="fill:#8CB7E8;" d="M256,59.077c-32.576,0-59.077,26.502-59.077,59.077s26.501,59.077,59.077,59.077 s59.077-26.503,59.077-59.077C315.077,85.579,288.576,59.077,256,59.077z"/> </g> <g> <path style="fill:#6398DE;" d="M492.308,334.769H256v39.385h236.308c10.875,0,19.692-8.818,19.692-19.692 C512,343.585,503.183,334.769,492.308,334.769z"/> <path style="fill:#6398DE;" d="M315.077,118.154c0-32.575-26.501-59.077-59.077-59.077v118.154 C288.576,177.231,315.077,150.729,315.077,118.154z"/> </g> </g>
</svg>