<svg width="48" height="49" viewBox="0 0 48 49" fill="none" xmlns="http://www.w3.org/2000/svg">
<path d="M6 20.5C6 19.3954 6.89544 18.5 8 18.5H14V42.5H8C6.89544 42.5 6 41.6046 6 40.5V20.5Z" stroke="#348D37" stroke-width="5.33333" stroke-linecap="round" stroke-linejoin="round"/>
<path d="M14 22.5V38.5L17.9846 41.1564C19.2987 42.0324 20.8428 42.5 22.4222 42.5H32.9172C35.8502 42.5 38.3534 40.3796 38.8356 37.4864L41.2238 23.1576C41.63 20.7194 39.75 18.5 37.2782 18.5H28" stroke="#348D37" stroke-width="5.33333" stroke-linecap="round" stroke-linejoin="round"/>
<path d="M28 18.4995L29.3744 11.6278C29.7318 9.84068 28.7024 8.06704 26.9734 7.4907C25.2672 6.92198 23.4026 7.69436 22.5984 9.30294L16 22.4995H14" stroke="#348D37" stroke-width="5.33333" stroke-linecap="round" stroke-linejoin="round"/>
</svg>
