<svg width="48" height="49" viewBox="0 0 48 49" fill="none" xmlns="http://www.w3.org/2000/svg">
<path d="M40 30.5C41.1046 30.5 42 29.6046 42 28.5C42 27.3954 41.1046 26.5 40 26.5C38.8954 26.5 38 27.3954 38 28.5C38 29.6046 38.8954 30.5 40 30.5Z" fill="#348D37"/>
<path fill-rule="evenodd" clip-rule="evenodd" d="M33.55 2.47128C36.9838 1.42205 40.5642 3.60345 41.2066 7.13609L41.8724 10.7984C44.2692 11.585 46 13.8406 46 16.5005V22.0283C47.2274 23.1269 48 24.7235 48 26.5005V30.5005C48 32.2775 47.2274 33.8741 46 34.9727V40.5005C46 43.8143 43.3138 46.5005 40 46.5005H8C4.6863 46.5005 2 43.8143 2 40.5005V16.5005C2 13.5267 4.16348 11.0582 7.00236 10.583L33.55 2.47128ZM42 32.5005C43.1046 32.5005 44 31.6051 44 30.5005V26.5005C44 25.3959 43.1046 24.5005 42 24.5005H36C34.8954 24.5005 34 25.3959 34 26.5005V30.5005C34 31.6051 34.8954 32.5005 36 32.5005H42ZM42 36.5005V40.5005C42 41.6051 41.1046 42.5005 40 42.5005H8C6.89544 42.5005 6 41.6051 6 40.5005V16.5005C6 15.3959 6.89544 14.5005 8 14.5005H40C41.1 14.5005 41.9924 15.3884 42 16.4865V20.5005H36C32.6862 20.5005 30 23.1867 30 26.5005V30.5005C30 33.8143 32.6862 36.5005 36 36.5005H42ZM37.3908 7.71459L37.8824 10.5005H20L34.8464 6.14651C35.993 5.80257 37.1828 6.53587 37.3908 7.71459Z" fill="#348D37"/>
</svg>
